<?xml version="1.0" encoding="UTF-8" standalone="no"?>
<svg width="40px" height="25px" viewBox="0 0 40 25" version="1.1" xmlns="http://www.w3.org/2000/svg" xmlns:xlink="http://www.w3.org/1999/xlink">
    <!-- Generator: Sketch 3.7.2 (28276) - http://www.bohemiancoding.com/sketch -->
    <title>behance black.1</title>
    <desc>Created with Sketch.</desc>
    <defs></defs>
    <g id="Page-1" stroke="none" stroke-width="1" fill="none" fill-rule="evenodd">
        <g id="behance-black.1" fill="#54EA7E">
            <g id="Behance-black">
                <g id="Icons">
                    <g id="Black">
                        <path d="M25.5598067,4.17169333 L36.1524975,4.17169333 L36.1524975,1.13689083 L25.5598067,1.13689083 L25.5598067,4.17169333 L25.5598067,4.17169333 L25.5598067,4.17169333 Z M28.0692208,10.7935033 C27.3942425,11.4802783 26.9685592,12.4106725 26.7945225,13.5846867 L35.0330217,13.5846867 C34.9460033,12.3317867 34.5179683,11.3851508 33.760675,10.7331783 C32.993975,10.0858467 32.0508867,9.76334083 30.9220033,9.76334083 C29.6990458,9.76334083 28.7441992,10.1067283 28.0692208,10.7935033 L28.0692208,10.7935033 L28.0692208,10.7935033 L28.0692208,10.7935033 Z M35.2188167,6.7192575 C36.4958667,7.2807425 37.5471392,8.17169333 38.3749875,9.38747083 C39.1299283,10.4593967 39.6144075,11.7030158 39.83548,13.1160092 C39.9648317,13.941995 40.0165717,15.1392108 39.9954058,16.6960558 L26.6769308,16.6960558 C26.7568933,18.50348 27.3871867,19.7726217 28.5913292,20.49884 C29.3204,20.9512758 30.1976367,21.1786542 31.2277425,21.1786542 C32.3119417,21.1786542 33.198585,20.9025525 33.8782675,20.3526683 C34.25221,20.0533642 34.5814675,19.6403708 34.8636883,19.1113692 L39.7437583,19.1113692 C39.6144075,20.1786542 39.0217433,21.2668217 37.9728225,22.37123 C36.3359408,24.12297 34.0428967,25 31.09604,25 C28.6618842,25 26.5146533,24.2621808 24.6590517,22.7819025 C22.7940417,21.3039442 21.8674158,18.8955917 21.8674158,15.563805 C21.8674158,12.438515 22.7070233,10.0417633 24.3838858,8.37355 C26.0654525,6.70997667 28.240905,5.87239 30.9196517,5.87239 C32.5118475,5.87239 33.9441192,6.1554525 35.2188167,6.7192575 L35.2188167,6.7192575 L35.2188167,6.7192575 L35.2188167,6.7192575 Z M4.92710667,13.6496517 L4.92710667,20.1531325 L10.9290042,20.1531325 C12.0014442,20.1531325 12.8386992,20.0092808 13.433715,19.7238975 C14.5179133,19.190255 15.0588367,18.1786542 15.0588367,16.6798142 C15.0588367,15.4083525 14.5367283,14.5382833 13.485455,14.062645 C12.897495,13.7981442 12.0719992,13.6589325 11.0136708,13.6496517 L4.92710667,13.6496517 L4.92710667,13.6496517 L4.92710667,13.6496517 Z M4.92710667,4.23433833 L4.92710667,9.61484917 L10.9384117,9.61484917 C12.0084992,9.61484917 12.8810325,9.41299333 13.5536592,9.00928083 C14.2215817,8.60556833 14.557895,7.89095167 14.557895,6.87007 C14.557895,5.73085833 14.1157492,4.98143833 13.2314567,4.61484917 C12.4647567,4.36194917 11.4910942,4.23433833 10.3081183,4.23433833 L4.92710667,4.23433833 L4.92710667,4.23433833 L4.92710667,4.23433833 Z M18.3514142,2.5986075 C19.106355,3.63573083 19.4850017,4.87471 19.4850017,6.32018583 C19.4850017,7.807425 19.106355,9.00696083 18.3420067,9.91183333 C17.9139717,10.4176333 17.28603,10.8816708 16.45583,11.2993042 C17.7164175,11.75406 18.6665608,12.4709975 19.3133167,13.4524358 C19.9530175,14.4315542 20.27522,15.62413 20.27522,17.0255217 C20.27522,18.4709975 19.9083325,19.7679817 19.1722067,20.9141533 C18.7065425,21.6728542 18.1232858,22.313225 17.4224367,22.8329467 C16.63457,23.4292342 15.7055933,23.8352667 14.6308017,24.058005 C13.5560108,24.2784225 12.3942017,24.3851508 11.1383183,24.3851508 L0,24.3851508 L0,0 L11.945,0 C14.96006,0.0440833333 17.0931792,0.9095125 18.3514142,2.5986075 L18.3514142,2.5986075 L18.3514142,2.5986075 L18.3514142,2.5986075 Z" id="Behance"></path>
                    </g>
                </g>
            </g>
        </g>
    </g>
</svg>