<?xml version="1.0" encoding="UTF-8" standalone="no"?>
<svg width="25px" height="25px" viewBox="0 0 25 25" version="1.1" xmlns="http://www.w3.org/2000/svg" xmlns:xlink="http://www.w3.org/1999/xlink">
    <!-- Generator: Sketch 3.7.2 (28276) - http://www.bohemiancoding.com/sketch -->
    <title>dribbble color.1</title>
    <desc>Created with Sketch.</desc>
    <defs></defs>
    <g id="Page-1" stroke="none" stroke-width="1" fill="none" fill-rule="evenodd">
        <g id="home" transform="translate(-284.000000, -576.000000)" fill="#54EA7E">
            <g id="first" transform="translate(284.000000, 263.000000)">
                <g id="links" transform="translate(0.000000, 311.000000)">
                    <g id="dribbble-color.1" transform="translate(0.000000, 2.000000)">
                        <g id="Dribbble-color">
                            <g id="Icons">
                                <g id="Color-">
                                    <path d="M18.4659255,21.3534011 C18.3571473,20.7096245 17.7882636,17.5759891 16.3873701,13.7294962 C19.8344799,13.1783174 22.8200152,14.1234054 23.0405125,14.1954261 C22.5657082,17.1703217 20.8619978,19.7351402 18.4659255,21.3534011 L18.4659255,21.3534011 L18.4659255,21.3534011 L18.4659255,21.3534011 Z M12.5007348,23.1759658 C9.91650489,23.1759658 7.54689239,22.2573342 5.69912391,20.7287321 C5.84024239,20.8433772 5.93873098,20.9153978 5.93873098,20.9153978 C5.93873098,20.9153978 7.98494728,16.4530543 14.3161641,14.2468696 C14.3396837,14.2380505 14.3646734,14.2321712 14.3881929,14.2248223 C15.8905158,18.1271679 16.5093783,21.3960255 16.6681364,22.3293549 C15.3877815,22.8731848 13.9780679,23.1759658 12.5007348,23.1759658 L12.5007348,23.1759658 L12.5007348,23.1759658 L12.5007348,23.1759658 Z M1.82424891,12.4992652 C1.82424891,12.3860897 1.8301288,12.2743842 1.83306848,12.1626788 C2.02269674,12.167088 7.29699511,12.2861424 12.7932614,10.641425 C13.0990179,11.239638 13.3915446,11.8496092 13.6590815,12.4566408 C13.517963,12.4948554 13.3783147,12.5374799 13.2386663,12.5845141 C7.47780326,14.4452935 4.55547717,19.627844 4.55547717,19.627844 C4.55547717,19.627844 4.55988696,19.6322533 4.55988696,19.6337234 C2.85911685,17.7420777 1.82424891,15.241931 1.82424891,12.4992652 L1.82424891,12.4992652 L1.82424891,12.4992652 L1.82424891,12.4992652 Z M7.94525761,2.84702228 C8.0878462,3.03662772 10.0620332,5.71315163 11.9098016,8.99670761 C6.7839712,10.3592217 2.33433315,10.3048386 2.0535663,10.3004293 C2.74592826,6.99335652 4.96707228,4.25216087 7.94525761,2.84702228 L7.94525761,2.84702228 L7.94525761,2.84702228 L7.94525761,2.84702228 Z M9.94296467,2.13563424 C9.94296467,2.1371038 9.94149457,2.13857391 9.94149457,2.13857391 C9.94149457,2.13857391 9.92826467,2.14151359 9.90915489,2.14445272 C9.92091467,2.14151359 9.93120489,2.14004348 9.94296467,2.13563424 L9.94296467,2.13563424 L9.94296467,2.13563424 L9.94296467,2.13563424 Z M19.5507734,4.49027011 C19.5243136,4.52995489 18.0043511,6.84490543 13.9736582,8.35440054 C12.1494092,5.00176359 10.1443522,2.33846793 9.98412391,2.12681522 C10.7911446,1.93133043 11.6334451,1.82550435 12.5007348,1.82550435 C15.2025636,1.82550435 17.6706652,2.83379402 19.5507734,4.49027011 L19.5507734,4.49027011 L19.5507734,4.49027011 L19.5507734,4.49027011 Z M23.1728114,12.3934386 C23.018463,12.3596332 19.4052451,11.5821038 15.7376375,12.0436239 C15.6611984,11.8613674 15.5862293,11.6776413 15.50685,11.4939152 C15.2848826,10.9706625 15.0452755,10.4532897 14.7968484,9.94473533 C19.0127592,8.2235875 20.7238196,5.74989728 20.7443995,5.72050109 C22.2408418,7.53865598 23.1478217,9.86095598 23.1728114,12.3934386 L23.1728114,12.3934386 L23.1728114,12.3934386 L23.1728114,12.3934386 Z M24.747163,9.98442011 C24.582525,9.1819038 24.3355679,8.38967609 24.0165815,7.63419348 C23.7049451,6.89340924 23.3153995,6.17908152 22.8641147,5.51178804 C22.4187098,4.85037337 21.9042158,4.22717391 21.3397424,3.66276685 C20.7737989,3.09688967 20.1519962,2.58392609 19.4890337,2.1371038 C18.8216614,1.68440217 18.10725,1.29784239 17.3663788,0.983302717 C16.6108071,0.665823913 15.8199565,0.418895652 15.0173457,0.255746739 C14.1941554,0.0867190217 13.3474451,0 12.5007348,0 C11.6525549,0 10.8058446,0.0867190217 9.98265435,0.255746739 C9.18004348,0.418895652 8.38919293,0.665823913 7.6336212,0.983302717 C6.89275,1.29784239 6.17833859,1.68440217 5.5094962,2.1371038 C4.8480038,2.58392609 4.22620109,3.09688967 3.66025761,3.66276685 C3.09578424,4.22717391 2.58275978,4.85037337 2.13588533,5.51178804 C1.68460054,6.17908152 1.29505489,6.89340924 0.983418478,7.63419348 C0.6629625,8.38967609 0.417475,9.1819038 0.252836957,9.98442011 C0.0852592391,10.806044 0,11.6526543 0,12.4992652 C0,13.3488152 0.0852592391,14.1954261 0.252836957,15.0185196 C0.417475,15.8210359 0.6629625,16.611794 0.983418478,17.3658065 C1.29505489,18.1065908 1.68460054,18.8238582 2.13588533,19.4911516 C2.58275978,20.1525663 3.09578424,20.7728261 3.66025761,21.3401728 C4.22620109,21.9045799 4.8480038,22.4160739 5.5094962,22.8643658 C6.17833859,23.3155978 6.89275,23.7036277 7.6336212,24.0166973 C8.38919293,24.3371158 9.18004348,24.5811043 9.98265435,24.7442533 C10.8058446,24.9147511 11.6525549,25 12.5007348,25 C13.3474451,25 14.1941554,24.9147511 15.0173457,24.7442533 C15.8199565,24.5811043 16.6108071,24.3371158 17.3663788,24.0166973 C18.10725,23.7036277 18.8216614,23.3155978 19.4890337,22.8643658 C20.1519962,22.4160739 20.7737989,21.9045799 21.3397424,21.3401728 C21.9042158,20.7728261 22.4187098,20.1525663 22.8641147,19.4911516 C23.3153995,18.8238582 23.7049451,18.1065908 24.0165815,17.3658065 C24.3355679,16.611794 24.582525,15.8210359 24.747163,15.0185196 C24.9147408,14.1954261 25,13.3488152 25,12.4992652 C25,11.6526543 24.9147408,10.806044 24.747163,9.98442011 L24.747163,9.98442011 L24.747163,9.98442011 L24.747163,9.98442011 Z" id="Dribbble"></path>
                                </g>
                            </g>
                        </g>
                    </g>
                </g>
            </g>
        </g>
    </g>
</svg>