<?xml version="1.0" encoding="UTF-8" standalone="no"?>
<svg width="26px" height="25px" viewBox="0 0 26 25" version="1.1" xmlns="http://www.w3.org/2000/svg" xmlns:xlink="http://www.w3.org/1999/xlink">
    <!-- Generator: Sketch 3.7.2 (28276) - http://www.bohemiancoding.com/sketch -->
    <title>github black.1</title>
    <desc>Created with Sketch.</desc>
    <defs></defs>
    <g id="Page-1" stroke="none" stroke-width="1" fill="none" fill-rule="evenodd">
        <g id="github-black.1" fill="#54EA7E">
            <g id="Github-black">
                <g id="Icons" transform="translate(0.000000, 0.000000)">
                    <g id="Black" transform="translate(0.000000, 0.000000)">
                        <path d="M12.7651596,0 C5.71595745,0 5.68434189e-14,5.73781489 5.68434189e-14,12.8173638 C5.68434189e-14,18.4790803 3.65744681,23.2828883 8.73111702,24.9778787 C9.36941489,25.0956309 9.60239362,24.6999197 9.60239362,24.3602809 C9.60239362,24.0558872 9.5912234,23.2500457 9.58484043,22.1806638 C6.03351064,22.9552649 5.28430851,20.4624436 5.28430851,20.4624436 C4.70425532,18.9821303 3.86728723,18.5880213 3.86728723,18.5880213 C2.70797872,17.7925931 3.95505319,17.8086138 3.95505319,17.8086138 C5.2356383,17.8991309 5.90984043,19.1295207 5.90984043,19.1295207 C7.04920213,21.0880521 8.89787234,20.5225213 9.62553191,20.1940968 C9.7412234,19.3658266 10.0715426,18.8010968 10.4361702,18.4806824 C7.60132979,18.1570644 4.6212766,17.0580441 4.6212766,12.1468973 C4.6212766,10.7474888 5.11835106,9.60361064 5.93537234,8.70725213 C5.8037234,8.38283298 5.36569149,7.08035 6.05984043,5.31566915 C6.05984043,5.31566915 7.13218085,4.97122447 9.57047872,6.62936702 C10.5893617,6.34499947 11.6808511,6.20321649 12.7667553,6.19760904 C13.8510638,6.20321649 14.9433511,6.34499947 15.9630319,6.62936702 C18.399734,4.97122447 19.4696809,5.31566915 19.4696809,5.31566915 C20.1662234,7.08035 19.7281915,8.38283298 19.5965426,8.70725213 C20.4151596,9.60361064 20.9090426,10.7474888 20.9090426,12.1468973 C20.9090426,17.0700596 17.9242021,18.1538601 15.0805851,18.4710702 C15.5385638,18.8667814 15.9470745,19.648592 15.9470745,20.8445372 C15.9470745,22.5579516 15.931117,23.9397372 15.931117,24.3602809 C15.931117,24.7031239 16.1609043,25.1020394 16.8087766,24.9762766 C21.8776596,23.2780819 25.5319149,18.4774782 25.5319149,12.8173638 C25.5319149,5.73781489 19.8159574,0 12.7651596,0" id="Github"></path>
                    </g>
                </g>
            </g>
        </g>
    </g>
</svg>