<?xml version="1.0" encoding="UTF-8" standalone="no"?>
<svg width="25px" height="25px" viewBox="0 0 25 25" version="1.1" xmlns="http://www.w3.org/2000/svg" xmlns:xlink="http://www.w3.org/1999/xlink">
    <!-- Generator: Sketch 3.7.2 (28276) - http://www.bohemiancoding.com/sketch -->
    <title>instagram color.1</title>
    <desc>Created with Sketch.</desc>
    <defs></defs>
    <g id="Page-1" stroke="none" stroke-width="1" fill="none" fill-rule="evenodd">
        <g id="home" transform="translate(-399.000000, -575.000000)" fill="#54EA7E">
            <g id="first" transform="translate(284.000000, 263.000000)">
                <g id="links" transform="translate(0.000000, 311.000000)">
                    <g id="instagram-color.1" transform="translate(115.000000, 1.000000)">
                        <g id="Instagram-color">
                            <g id="Icons">
                                <g id="Color-">
                                    <path d="M12.500025,0 C9.10520365,0 8.67952396,0.0143895833 7.34626615,0.0752223958 C6.01578698,0.135905729 5.10711719,0.347232812 4.312025,0.656258854 C3.49003958,0.975655208 2.79294479,1.40307135 2.09798333,2.09798333 C1.40307135,2.79294479 0.975655208,3.49003958 0.656258854,4.312025 C0.347232813,5.10711719 0.135905729,6.01578698 0.0752223958,7.34626615 C0.0143895833,8.67952396 0,9.10520365 0,12.500025 C0,15.8947964 0.0143895833,16.320476 0.0752223958,17.6537339 C0.135905729,18.984213 0.347232813,19.8928828 0.656258854,20.687975 C0.975655208,21.5099604 1.40307135,22.2070552 2.09798333,22.9020167 C2.79294479,23.5969286 3.49003958,24.0243448 4.312025,24.3437911 C5.10711719,24.6527672 6.01578698,24.8640943 7.34626615,24.9247776 C8.67952396,24.9856104 9.10520365,25 12.500025,25 C15.8947964,25 16.320476,24.9856104 17.6537339,24.9247776 C18.984213,24.8640943 19.8928828,24.6527672 20.687975,24.3437911 C21.5099604,24.0243448 22.2070552,23.5969286 22.9020167,22.9020167 C23.5969286,22.2070552 24.0243448,21.5099604 24.3437911,20.687975 C24.6527672,19.8928828 24.8640943,18.984213 24.9247776,17.6537339 C24.9856104,16.320476 25,15.8947964 25,12.500025 C25,9.10520365 24.9856104,8.67952396 24.9247776,7.34626615 C24.8640943,6.01578698 24.6527672,5.10711719 24.3437911,4.312025 C24.0243448,3.49003958 23.5969286,2.79294479 22.9020167,2.09798333 C22.2070552,1.40307135 21.5099604,0.975655208 20.687975,0.656258854 C19.8928828,0.347232812 18.984213,0.135905729 17.6537339,0.0752223958 C16.320476,0.0143895833 15.8947964,0 12.500025,0 L12.500025,0 Z M12.500025,2.25224844 C15.8376354,2.25224844 16.2329979,2.26500052 17.5510729,2.32513854 C18.7698104,2.38071146 19.431676,2.58434688 19.8721422,2.75553177 C20.4556099,2.9822901 20.8720115,3.25315938 21.309401,3.69059896 C21.7468406,4.12798854 22.0177099,4.5443901 22.2444682,5.12785781 C22.4156531,5.56832396 22.6192885,6.23018958 22.6748615,7.44892708 C22.7349995,8.76700208 22.7477516,9.16236458 22.7477516,12.500025 C22.7477516,15.8376354 22.7349995,16.2329979 22.6748615,17.5510729 C22.6192885,18.7698104 22.4156531,19.431676 22.2444682,19.8721422 C22.0177099,20.4556099 21.7468406,20.8720115 21.309401,21.309401 C20.8720115,21.7468406 20.4556099,22.0177099 19.8721422,22.2444682 C19.431676,22.4156531 18.7698104,22.6192885 17.5510729,22.6748615 C16.2331964,22.7349995 15.8378833,22.7477516 12.500025,22.7477516 C9.16211667,22.7477516 8.76685313,22.7349995 7.44892708,22.6748615 C6.23018958,22.6192885 5.56832396,22.4156531 5.12785781,22.2444682 C4.5443901,22.0177099 4.12798854,21.7468406 3.69059896,21.309401 C3.25320885,20.8720115 2.9822901,20.4556099 2.75553177,19.8721422 C2.58434688,19.431676 2.38071146,18.7698104 2.32513854,17.5510729 C2.26500052,16.2329979 2.25224844,15.8376354 2.25224844,12.500025 C2.25224844,9.16236458 2.26500052,8.76700208 2.32513854,7.44892708 C2.38071146,6.23018958 2.58434688,5.56832396 2.75553177,5.12785781 C2.9822901,4.5443901 3.25315937,4.12798854 3.69059896,3.69059896 C4.12798854,3.25315938 4.5443901,2.9822901 5.12785781,2.75553177 C5.56832396,2.58434688 6.23018958,2.38071146 7.44892708,2.32513854 C8.76700208,2.26500052 9.16236458,2.25224844 12.500025,2.25224844 L12.500025,2.25224844 Z M12.500025,6.0810849 C8.95490833,6.0810849 6.0810849,8.95490833 6.0810849,12.500025 C6.0810849,16.0450917 8.95490833,18.9189151 12.500025,18.9189151 C16.0450917,18.9189151 18.9189151,16.0450917 18.9189151,12.500025 C18.9189151,8.95490833 16.0450917,6.0810849 12.500025,6.0810849 L12.500025,6.0810849 Z M12.500025,16.6666667 C10.1988026,16.6666667 8.33333333,14.8011974 8.33333333,12.500025 C8.33333333,10.1988026 10.1988026,8.33333333 12.500025,8.33333333 C14.8011974,8.33333333 16.6666667,10.1988026 16.6666667,12.500025 C16.6666667,14.8011974 14.8011974,16.6666667 12.500025,16.6666667 L12.500025,16.6666667 Z M20.6725437,5.82748333 C20.6725437,6.65591927 20.0009526,7.32746042 19.1725167,7.32746042 C18.3441302,7.32746042 17.6725396,6.65591927 17.6725396,5.82748333 C17.6725396,4.9990474 18.3441302,4.32745625 19.1725167,4.32745625 C20.0009526,4.32745625 20.6725437,4.9990474 20.6725437,5.82748333 L20.6725437,5.82748333 Z" id="Instagram"></path>
                                </g>
                            </g>
                        </g>
                    </g>
                </g>
            </g>
        </g>
    </g>
</svg>