<?xml version="1.0" encoding="UTF-8" standalone="no"?>
<svg width="28px" height="25px" viewBox="0 0 28 25" version="1.1" xmlns="http://www.w3.org/2000/svg" xmlns:xlink="http://www.w3.org/1999/xlink">
    <!-- Generator: Sketch 3.7.2 (28276) - http://www.bohemiancoding.com/sketch -->
    <title>linkedin black.1</title>
    <desc>Created with Sketch.</desc>
    <defs></defs>
    <g id="Page-1" stroke="none" stroke-width="1" fill="none" fill-rule="evenodd">
        <g id="home" transform="translate(-454.000000, -575.000000)" fill="#54EA7E">
            <g id="first" transform="translate(284.000000, 263.000000)">
                <g id="links" transform="translate(0.000000, 311.000000)">
                    <g id="linkedin-black.1" transform="translate(170.000000, 1.000000)">
                        <g id="LinkedIn-black">
                            <g id="Icons">
                                <g id="Black">
                                    <path d="M27.5,25 L21.422125,25 L21.422125,16.2115 C21.422125,13.9111225 20.4713956,12.3407188 18.3807619,12.3407188 C16.7816619,12.3407188 15.8923744,13.4004613 15.4784513,14.4217838 C15.32323,14.7883719 15.3474838,15.2990331 15.3474838,15.8096944 L15.3474838,25 L9.32619938,25 C9.32619938,25 9.40381,9.43202938 9.32619938,8.01690437 L15.3474838,8.01690437 L15.3474838,10.6822694 C15.7031988,9.5168725 17.6272931,7.85362125 20.69776,7.85362125 C24.5071437,7.85362125 27.5,10.2964719 27.5,15.556765 L27.5,25 L27.5,25 L27.5,25 Z M3.23700625,5.89261687 L3.19820062,5.89261687 C1.2579375,5.89261687 0,4.5943525 0,2.94871 C0,1.27105063 1.29512562,0 3.27419437,0 C5.25164625,0 6.46754438,1.26784937 6.50635,2.9439075 C6.50635,4.58955 5.25164625,5.89261687 3.23700625,5.89261687 L3.23700625,5.89261687 L3.23700625,5.89261687 L3.23700625,5.89261687 Z M0.693644375,8.01690437 L6.05362187,8.01690437 L6.05362187,25 L0.693644375,25 L0.693644375,8.01690437 L0.693644375,8.01690437 L0.693644375,8.01690437 Z" id="LinkedIn"></path>
                                </g>
                            </g>
                        </g>
                    </g>
                </g>
            </g>
        </g>
    </g>
</svg>