<?xml version="1.0" encoding="UTF-8" standalone="no"?>
<svg width="30px" height="25px" viewBox="0 0 30 25" version="1.1" xmlns="http://www.w3.org/2000/svg" xmlns:xlink="http://www.w3.org/1999/xlink">
    <!-- Generator: Sketch 3.7.2 (28276) - http://www.bohemiancoding.com/sketch -->
    <title>medium color.1</title>
    <desc>Created with Sketch.</desc>
    <defs></defs>
    <g id="Page-1" stroke="none" stroke-width="1" fill="none" fill-rule="evenodd">
        <g id="home" transform="translate(-339.000000, -574.000000)">
            <g id="first" transform="translate(284.000000, 263.000000)">
                <g id="links" transform="translate(0.000000, 311.000000)">
                    <g id="medium-color.1" transform="translate(55.000000, 0.000000)">
                        <g id="Medium-color">
                            <g id="Icons">
                                <g id="Color-">
                                    <g id="Medium">
                                        <path d="M20.2354349,0.297222222 C19.795306,0.0758333335 19.4352508,0.299722222 19.4352508,0.79472222 L19.4352508,20.4861111 L27.4671882,24.5263889 C28.3510354,24.9708334 29.0675564,24.6597222 29.0675564,23.8313889 L29.0675564,4.86916666 C29.0675564,4.79 29.0228256,4.71722222 28.952416,4.68166666 L20.2354349,0.297222222" id="Fill-1" fill="#00FC87"></path>
                                        <path d="M9.80322134,15.6411111 L18.9664059,0.66111111 C19.2242982,0.239444445 19.795306,0.0758333335 20.2354349,0.297222222 L28.9623562,4.68666666 C29.0189599,4.71527778 29.0391164,4.78638889 29.0059825,4.84055555 L19.4352508,20.4861111 L9.80322134,15.6411111" id="Fill-2" fill="#00E468"></path>
                                        <path d="M1.50455591,0.565555555 C0.770915787,0.196388889 0.522411413,0.469444445 0.952323976,1.17222222 L9.80322134,15.6411111 L19.4352508,20.4861111 L9.82393006,4.77361111 C9.81040037,4.75138889 9.79079616,4.73361111 9.76760238,4.72194445 L1.50455591,0.565555555" id="Fill-3" fill="#00C860"></path>
                                        <path d="M9.80322134,23.8313889 C9.80322134,24.6563889 9.20294524,25.0294445 8.46958122,24.6605555 L0.97109986,20.8886111 C0.530971008,20.6672222 0.170915785,20.0811111 0.170915785,19.5861111 L0.170915785,1.09472222 C0.170915785,0.434722222 0.651081451,0.136111111 1.23782789,0.431388889 L9.75131152,4.71361111 C9.78306488,4.72972222 9.80322134,4.76222222 9.80322134,4.79777778 L9.80322134,23.8313889" id="Fill-4" fill="#00AC68"></path>
                                    </g>
                                </g>
                            </g>
                        </g>
                    </g>
                </g>
            </g>
        </g>
    </g>
</svg>