<?xml version="1.0" encoding="utf-8"?>
<!-- Generator: Adobe Illustrator 19.0.0, SVG Export Plug-In . SVG Version: 6.00 Build 0)  -->
<svg version="1.1" id="Layer_1" xmlns="http://www.w3.org/2000/svg" xmlns:xlink="http://www.w3.org/1999/xlink" x="0px" y="0px"
	 viewBox="0 0 800 800" enable-background="new 0 0 800 800" xml:space="preserve">
<g id="XMLID_40_">
	<polygon id="XMLID_55_" fill="#457EB7" points="400,231.6 568.4,231.6 568.4,400 400,400 	"/>
	<path id="XMLID_54_" fill="#2E91CF" d="M400,400c0-93,168.4-168.4,168.4-168.4L736.8,400L400,400"/>
	<polygon id="XMLID_53_" fill="#0CA8B2" points="568.4,400 568.4,568.4 400,568.4 400,400 	"/>
	<path id="XMLID_52_" fill="#69CCE1" d="M400,400c93,0,168.4,168.4,168.4,168.4L400,736.9V400"/>
	<rect id="XMLID_51_" x="231.6" y="400" fill="#672D73" width="168.4" height="168.4"/>
	<path id="XMLID_50_" fill="#90499B" d="M400,400c0,93-168.4,168.4-168.4,168.4L63.2,400H400"/>
	<rect id="XMLID_49_" x="231.6" y="231.6" fill="#D58128" width="168.4" height="168.4"/>
	<path id="XMLID_48_" fill="#F99E26" d="M400,400V63.1L231.6,231.6C231.6,231.6,307,400,400,400"/>
	<path id="XMLID_47_" fill="#FFFFFF" d="M400,442.1c-23.2,0-42.1-18.9-42.1-42.1l0,0c0-23.3,18.9-42.1,42.1-42.1l0,0
		c23.3,0,42.1,18.8,42.1,42.1l0,0C442.1,423.3,423.3,442.1,400,442.1L400,442.1z"/>
	<path id="XMLID_46_" opacity="0.1" fill="#FFFFFF" d="M400,400c0,0-92.8-102.4-89.8-247.1L400,63.1V400z"/>
	<path id="XMLID_45_" opacity="0.1" fill="#FFFFFF" d="M400,400c0,0,102.4-92.8,247.1-89.8l89.8,89.8H400z"/>
	<path id="XMLID_44_" opacity="0.1" fill="#FFFFFF" d="M400,400c0,0,92.8,102.4,89.8,247.1L400,736.9V400z"/>
	<path id="XMLID_43_" opacity="0.1" fill="#FFFFFF" d="M400,400c0,0-102.4,92.8-247.1,89.8L63.2,400H400z"/>
</g>
</svg>
